<?xml version="1.0" encoding="UTF-8"?>
<svg width="75px" height="47px" viewBox="0 0 75 47" version="1.1" xmlns="http://www.w3.org/2000/svg" xmlns:xlink="http://www.w3.org/1999/xlink">
    <!-- Generator: Sketch 61.2 (89653) - https://sketch.com -->
    <title>LOGO1</title>
    <desc>Created with Sketch.</desc>
    <g id="Page-1" stroke="none" stroke-width="1" fill="none" fill-rule="evenodd">
        <g id="LOGO1" transform="translate(0.000000, 1.000000)">
            <g id="Group" transform="translate(0.000000, 22.000000)" fill="#6D6E71" fill-rule="nonzero">
                <path d="M0.656,8.35 L1.136,7.787 C1.4,7.987 1.632,8.145 1.832,8.261 C2.032,8.377 2.274,8.471 2.558,8.543 C2.842,8.614 3.184,8.651 3.584,8.651 C4.048,8.651 4.438,8.577 4.754,8.428 C5.07,8.28 5.304,8.092 5.456,7.864 C5.608,7.636 5.684,7.403 5.684,7.163 L5.684,6.971 C5.684,6.579 5.568,6.275 5.336,6.06 C5.104,5.843 4.7,5.639 4.124,5.447 L2.924,5.051 C2.236,4.82 1.74,4.537 1.436,4.205 C1.132,3.873 0.98,3.479 0.98,3.022 L0.98,2.758 C0.98,2.422 1.086,2.098 1.298,1.786 C1.51,1.474 1.828,1.221 2.252,1.023 C2.676,0.828 3.188,0.73 3.788,0.73 C4.9,0.73 5.82,1.093 6.548,1.822 L6.068,2.349 C5.716,2.037 5.366,1.812 5.018,1.671 C4.67,1.531 4.264,1.461 3.8,1.461 C3.368,1.461 3.008,1.526 2.72,1.659 C2.432,1.791 2.22,1.955 2.084,2.151 C1.948,2.346 1.88,2.548 1.88,2.756 L1.88,3.008 C1.88,3.288 2.002,3.536 2.246,3.752 C2.49,3.968 2.888,4.164 3.44,4.34 L4.532,4.688 C5.196,4.905 5.704,5.176 6.056,5.504 C6.408,5.832 6.584,6.288 6.584,6.872 L6.584,7.172 C6.584,7.58 6.464,7.956 6.224,8.3 C5.984,8.645 5.638,8.916 5.186,9.116 C4.734,9.316 4.2,9.4160084 3.584,9.4160084 C2.344,9.418 1.368,9.063 0.656,8.35 Z" id="Path"></path>
                <path d="M14.083,1.678 C14.627,2.311 14.899,3.143 14.899,4.174 L14.899,6.022 C14.899,6.67 14.781,7.251 14.545,7.762 C14.309,8.273 13.947,8.678 13.459,8.975 C12.971,9.27 12.363,9.418 11.635,9.418 C10.907,9.418 10.299,9.27 9.811,8.975 C9.323,8.678 8.961,8.274 8.725,7.762 C8.489,7.25 8.371,6.67 8.371,6.022 L8.371,4.174 C8.371,3.135 8.645,2.301 9.193,1.672 C9.741,1.044 10.555,0.730997634 11.635,0.730997634 C12.723,0.73 13.539,1.046 14.083,1.678 Z M9.859,2.193 C9.467,2.681 9.271,3.338 9.271,4.162 L9.271,6.046 C9.271,6.83 9.467,7.466 9.859,7.954 C10.251,8.441 10.843,8.685 11.635,8.685 C12.427,8.685 13.019,8.441 13.411,7.954 C13.803,7.466 13.999,6.83 13.999,6.046 L13.999,4.162 C13.999,3.346 13.805,2.691 13.417,2.199 C13.029,1.708 12.435,1.462 11.635,1.462 C10.843,1.462 10.251,1.706 9.859,2.193 Z" id="Shape"></path>
                <polygon id="Path" points="21.884 8.506 21.884 9.274 17.348 9.274 17.348 0.875 18.248 0.875 18.248 8.507 21.884 8.507"></polygon>
                <polygon id="Path" points="21.991 0.874 22.939 0.874 25.399 8.506 27.787 0.874 28.723 0.874 26.023 9.273 24.787 9.273"></polygon>
            </g>
            <line x1="30.161" y1="23.135" x2="34.677" y2="23.135" id="Path" stroke="#4791CD"></line>
            <line x1="30.161" y1="26.917" x2="34.677" y2="26.917" id="Path" stroke="#4791CD"></line>
            <line x1="30.161" y1="30.854" x2="34.677" y2="30.854" id="Path" stroke="#4791CD"></line>
            <line x1="38.318" y1="9.474" x2="47.93" y2="19.055" id="Path" stroke="#4791CD" stroke-width="4"></line>
            <line x1="54.911" y1="28.016" x2="63.459" y2="36.826" id="Path" stroke="#808285" stroke-width="4"></line>
            <line x1="45.221" y1="19.055" x2="63.459" y2="0.756" id="Path" stroke="#4791CD" stroke-width="4" fill="#6D6E71" fill-rule="nonzero"></line>
            <line x1="39.75" y1="44.305" x2="56.892" y2="27.205" id="Path" stroke="#808285" stroke-width="4"></line>
            <line x1="29.75" y1="10.634" x2="47.17" y2="28.016" id="Path" stroke="#808285" stroke-width="4"></line>
            <line x1="56.062" y1="17.154" x2="73.483" y2="34.537" id="Path" stroke="#808285" stroke-width="4"></line>
            <line x1="47.93" y1="25.953" x2="38.318" y2="35.744" id="Path" stroke="#808285" stroke-width="4"></line>
            <line x1="65.596" y1="9.167" x2="55.324" y2="19.248" id="Path" stroke="#808285" stroke-width="4"></line>
        </g>
    </g>
</svg>